<?xml version="1.0" encoding="UTF-8"?>
<!DOCTYPE svg PUBLIC "-//W3C//DTD SVG 1.1//EN" "http://www.w3.org/Graphics/SVG/1.1/DTD/svg11.dtd">
<svg xmlns="http://www.w3.org/2000/svg" version="1.1" width="500px" height="500px" style="shape-rendering:geometricPrecision; text-rendering:geometricPrecision; image-rendering:optimizeQuality; fill-rule:evenodd; clip-rule:evenodd" xmlns:xlink="http://www.w3.org/1999/xlink">
<g><path style="opacity:0.46" fill="#688a86" d="M 319.5,114.5 C 323.151,113.835 326.985,113.501 331,113.5C 335.229,113.51 339.062,114.177 342.5,115.5C 342.167,115.5 341.833,115.5 341.5,115.5C 334.352,114.508 327.019,114.175 319.5,114.5 Z"/></g>
<g><path style="opacity:1" fill="#afcdc7" d="M 156.5,114.5 C 165.435,117.721 173.602,122.387 181,128.5C 181.167,129.5 181.333,130.5 181.5,131.5C 181.36,133.03 180.693,134.03 179.5,134.5C 171.407,128.787 162.741,124.12 153.5,120.5C 154.13,118.25 155.13,116.25 156.5,114.5 Z"/></g>
<g><path style="opacity:1" fill="#b1d0cc" d="M 341.5,115.5 C 341.833,115.5 342.167,115.5 342.5,115.5C 342.953,117.565 343.953,119.232 345.5,120.5C 335.884,124.641 326.551,129.308 317.5,134.5C 316.588,133.262 316.421,131.928 317,130.5C 318.458,128.04 320.291,125.873 322.5,124C 328.619,120.606 334.952,117.772 341.5,115.5 Z"/></g>
<g><path style="opacity:1" fill="#235962" d="M 153.5,120.5 C 162.741,124.12 171.407,128.787 179.5,134.5C 178.624,134.369 177.957,134.702 177.5,135.5C 178.689,136.429 180.022,136.762 181.5,136.5C 181.773,138.451 181.107,139.951 179.5,141C 181.396,142.065 181.563,142.898 180,143.5C 177.269,142.762 175.102,141.262 173.5,139C 175.645,138.257 175.811,137.424 174,136.5C 172.079,137.19 170.245,137.524 168.5,137.5C 171.505,138.819 173.838,140.819 175.5,143.5C 168.363,139.872 161.029,136.538 153.5,133.5C 152.808,132.975 152.308,132.308 152,131.5C 148.681,132.243 145.514,131.576 142.5,129.5C 144.027,127.67 143.527,126.67 141,126.5C 136.856,125.836 132.689,125.336 128.5,125C 126.546,122.584 124.213,120.584 121.5,119C 121.833,118.667 122.167,118.333 122.5,118C 121.451,117.508 120.451,117.674 119.5,118.5C 119.264,117.753 118.93,116.92 118.5,116C 116.527,115.505 114.527,115.338 112.5,115.5C 112.806,118.385 112.473,121.052 111.5,123.5C 106.755,117.018 108.588,113.685 117,113.5C 129.56,113.979 141.726,116.312 153.5,120.5 Z"/></g>
<g><path style="opacity:1" fill="#1e5660" d="M 371.5,114.5 C 372.609,115.29 373.942,115.79 375.5,116C 372.711,116.241 370.044,116.908 367.5,118C 370.545,119.641 373.545,120.474 376.5,120.5C 371.086,119.843 365.752,120.51 360.5,122.5C 361.668,123.906 361.335,125.072 359.5,126C 360.833,126.333 362.167,126.667 363.5,127C 355.974,130.04 348.308,132.707 340.5,135C 336.648,137.955 332.315,139.955 327.5,141C 326.299,141.903 325.465,143.069 325,144.5C 324.586,144.043 324.086,143.709 323.5,143.5C 322.818,144.243 322.151,144.909 321.5,145.5C 321.167,145.5 320.833,145.5 320.5,145.5C 318.697,143.519 317.03,141.352 315.5,139C 316.582,137.67 317.249,136.17 317.5,134.5C 326.551,129.308 335.884,124.641 345.5,120.5C 353.951,117.61 362.617,115.61 371.5,114.5 Z"/></g>
<g><path style="opacity:1" fill="#164a56" d="M 387.5,114.5 C 376.833,114.833 376.833,115.167 387.5,115.5C 385.91,120.205 384.743,125.205 384,130.5C 382.757,129.664 381.59,129.997 380.5,131.5C 380.02,133.949 379.02,136.115 377.5,138C 375.888,138.72 374.388,138.554 373,137.5C 372.667,135.5 372.333,133.5 372,131.5C 368.676,135.15 364.676,136.15 360,134.5C 358.135,136.673 355.969,137.007 353.5,135.5C 353.306,137.042 352.139,138.375 350,139.5C 348.387,138.378 347.22,138.878 346.5,141C 343.167,142.333 339.833,143.667 336.5,145C 335.748,145.671 335.414,146.504 335.5,147.5C 333.664,149.588 331.331,150.921 328.5,151.5C 328.631,150.761 328.464,150.094 328,149.5C 325.461,152.068 322.794,153.735 320,154.5C 319.308,153.975 318.808,153.308 318.5,152.5C 319.718,152.891 320.552,152.224 321,150.5C 321.494,148.866 321.66,147.199 321.5,145.5C 322.151,144.909 322.818,144.243 323.5,143.5C 324.086,143.709 324.586,144.043 325,144.5C 325.465,143.069 326.299,141.903 327.5,141C 332.315,139.955 336.648,137.955 340.5,135C 348.308,132.707 355.974,130.04 363.5,127C 362.167,126.667 360.833,126.333 359.5,126C 361.335,125.072 361.668,123.906 360.5,122.5C 365.752,120.51 371.086,119.843 376.5,120.5C 373.545,120.474 370.545,119.641 367.5,118C 370.044,116.908 372.711,116.241 375.5,116C 373.942,115.79 372.609,115.29 371.5,114.5C 376.991,113.441 382.325,113.441 387.5,114.5 Z"/></g>
<g><path style="opacity:1" fill="#174853" d="M 175.5,143.5 C 180.624,147.531 185.957,151.198 191.5,154.5C 192.624,155.914 193.624,157.414 194.5,159C 195.793,159.49 197.127,159.657 198.5,159.5C 198.232,157.901 198.566,156.568 199.5,155.5C 200.007,160.547 200.84,165.547 202,170.5C 202.465,171.931 203.299,173.097 204.5,174C 203.366,175.016 203.699,175.683 205.5,176C 204.5,176.333 203.5,176.667 202.5,177C 203.711,177.893 203.711,178.726 202.5,179.5C 199.591,177.241 197.924,174.241 197.5,170.5C 196.192,169.374 194.858,169.374 193.5,170.5C 193.167,170.5 192.833,170.5 192.5,170.5C 175.963,152.723 155.63,141.39 131.5,136.5C 126.389,138.845 126.389,141.511 131.5,144.5C 132.076,148.488 133.409,152.155 135.5,155.5C 133.299,155.858 131.965,157.192 131.5,159.5C 131.88,161.021 132.046,162.687 132,164.5C 135.045,167.998 138.712,169.331 143,168.5C 150.139,172.987 157.639,176.82 165.5,180C 167.65,181.192 168.317,182.692 167.5,184.5C 163.028,181.427 158.361,178.593 153.5,176C 145.786,173.211 138.286,170.044 131,166.5C 123.957,152.413 117.457,138.08 111.5,123.5C 112.473,121.052 112.806,118.385 112.5,115.5C 114.527,115.338 116.527,115.505 118.5,116C 118.93,116.92 119.264,117.753 119.5,118.5C 120.451,117.674 121.451,117.508 122.5,118C 122.167,118.333 121.833,118.667 121.5,119C 124.213,120.584 126.546,122.584 128.5,125C 132.689,125.336 136.856,125.836 141,126.5C 143.527,126.67 144.027,127.67 142.5,129.5C 145.514,131.576 148.681,132.243 152,131.5C 152.308,132.308 152.808,132.975 153.5,133.5C 161.029,136.538 168.363,139.872 175.5,143.5 Z"/></g>
<g><path style="opacity:1" fill="#23545c" d="M 199.5,155.5 C 198.566,156.568 198.232,157.901 198.5,159.5C 197.127,159.657 195.793,159.49 194.5,159C 193.624,157.414 192.624,155.914 191.5,154.5C 185.957,151.198 180.624,147.531 175.5,143.5C 173.838,140.819 171.505,138.819 168.5,137.5C 170.245,137.524 172.079,137.19 174,136.5C 175.811,137.424 175.645,138.257 173.5,139C 175.102,141.262 177.269,142.762 180,143.5C 181.563,142.898 181.396,142.065 179.5,141C 181.107,139.951 181.773,138.451 181.5,136.5C 180.022,136.762 178.689,136.429 177.5,135.5C 177.957,134.702 178.624,134.369 179.5,134.5C 180.693,134.03 181.36,133.03 181.5,131.5C 181.333,130.5 181.167,129.5 181,128.5C 173.602,122.387 165.435,117.721 156.5,114.5C 164.323,113.344 172.323,113.177 180.5,114C 182.956,116.408 184.789,119.241 186,122.5C 190.995,133.323 195.495,144.323 199.5,155.5 Z"/></g>
<g><path style="opacity:1" fill="#1c505a" d="M 319.5,114.5 C 327.019,114.175 334.352,114.508 341.5,115.5C 334.952,117.772 328.619,120.606 322.5,124C 320.291,125.873 318.458,128.04 317,130.5C 316.421,131.928 316.588,133.262 317.5,134.5C 317.249,136.17 316.582,137.67 315.5,139C 317.03,141.352 318.697,143.519 320.5,145.5C 317.978,147.19 315.644,149.19 313.5,151.5C 312.201,150.91 311.368,149.91 311,148.5C 310.667,149.167 310.333,149.833 310,150.5C 309.282,149.549 308.449,149.383 307.5,150C 308.696,150.654 308.696,151.154 307.5,151.5C 306.575,150.359 305.741,150.359 305,151.5C 304.667,150.833 304.333,150.167 304,149.5C 303.794,151.936 302.627,153.602 300.5,154.5C 304.825,141.514 309.991,128.847 316,116.5C 316.816,115.177 317.983,114.511 319.5,114.5 Z"/></g>
<g><path style="opacity:1" fill="#174752" d="M 320.5,145.5 C 320.833,145.5 321.167,145.5 321.5,145.5C 321.66,147.199 321.494,148.866 321,150.5C 320.552,152.224 319.718,152.891 318.5,152.5C 318.808,153.308 319.308,153.975 320,154.5C 322.794,153.735 325.461,152.068 328,149.5C 328.464,150.094 328.631,150.761 328.5,151.5C 324.524,154.469 320.524,157.469 316.5,160.5C 303.478,172.182 293.144,185.848 285.5,201.5C 284.418,199.673 284.418,197.673 285.5,195.5C 285.253,194.287 284.586,193.62 283.5,193.5C 288.93,180.315 294.597,167.315 300.5,154.5C 302.627,153.602 303.794,151.936 304,149.5C 304.333,150.167 304.667,150.833 305,151.5C 305.741,150.359 306.575,150.359 307.5,151.5C 308.696,151.154 308.696,150.654 307.5,150C 308.449,149.383 309.282,149.549 310,150.5C 310.333,149.833 310.667,149.167 311,148.5C 311.368,149.91 312.201,150.91 313.5,151.5C 315.644,149.19 317.978,147.19 320.5,145.5 Z"/></g>
<g><path style="opacity:1" fill="#a9c9c6" d="M 371.5,140.5 C 371.047,141.458 370.381,142.292 369.5,143C 353.236,146.804 338.236,153.304 324.5,162.5C 321.675,162.081 319.509,163.081 318,165.5C 317.25,164.874 316.416,164.374 315.5,164C 317.727,163.296 318.06,162.129 316.5,160.5C 320.524,157.469 324.524,154.469 328.5,151.5C 331.331,150.921 333.664,149.588 335.5,147.5C 344.939,143.45 354.606,139.95 364.5,137C 366.5,136.333 368.5,136.333 370.5,137C 371.337,138.011 371.67,139.178 371.5,140.5 Z"/></g>
<g><path style="opacity:1" fill="#a6c8c5" d="M 192.5,170.5 C 192.7,173.386 193.7,175.886 195.5,178C 192.317,178.342 190.317,176.842 189.5,173.5C 188.311,172.571 186.978,172.238 185.5,172.5C 170.328,157.913 152.328,148.579 131.5,144.5C 126.389,141.511 126.389,138.845 131.5,136.5C 155.63,141.39 175.963,152.723 192.5,170.5 Z"/></g>
<g><path style="opacity:1" fill="#184850" d="M 387.5,114.5 C 389.293,114.884 390.293,116.05 390.5,118C 383.41,134.347 375.91,150.513 368,166.5C 367.167,167.333 366.333,168.167 365.5,169C 359.712,170.541 354.045,172.374 348.5,174.5C 349.413,172.914 349.413,171.414 348.5,170C 352.97,170.135 357.304,169.135 361.5,167C 361.943,165.482 361.276,164.315 359.5,163.5C 357.5,164.167 355.5,164.833 353.5,165.5C 352.478,165.145 351.811,164.478 351.5,163.5C 354.542,162.09 357.709,160.757 361,159.5C 363.836,154.495 366.669,149.495 369.5,144.5C 371.841,143.601 372.507,142.268 371.5,140.5C 371.67,139.178 371.337,138.011 370.5,137C 368.5,136.333 366.5,136.333 364.5,137C 354.606,139.95 344.939,143.45 335.5,147.5C 335.414,146.504 335.748,145.671 336.5,145C 339.833,143.667 343.167,142.333 346.5,141C 347.22,138.878 348.387,138.378 350,139.5C 352.139,138.375 353.306,137.042 353.5,135.5C 355.969,137.007 358.135,136.673 360,134.5C 364.676,136.15 368.676,135.15 372,131.5C 372.333,133.5 372.667,135.5 373,137.5C 374.388,138.554 375.888,138.72 377.5,138C 379.02,136.115 380.02,133.949 380.5,131.5C 381.59,129.997 382.757,129.664 384,130.5C 384.743,125.205 385.91,120.205 387.5,115.5C 376.833,115.167 376.833,114.833 387.5,114.5 Z"/></g>
<g><path style="opacity:1" fill="#205861" d="M 131.5,144.5 C 152.328,148.579 170.328,157.913 185.5,172.5C 190.939,178.271 195.605,184.604 199.5,191.5C 197.876,191.36 196.71,192.027 196,193.5C 195.517,192.552 195.351,191.552 195.5,190.5C 190.78,190.775 190.446,189.941 194.5,188C 192.203,187.982 189.869,188.149 187.5,188.5C 180.373,182.554 173.04,176.721 165.5,171C 156.854,166.325 147.854,162.659 138.5,160C 137.614,158.385 136.614,156.885 135.5,155.5C 133.409,152.155 132.076,148.488 131.5,144.5 Z"/></g>
<g><path style="opacity:1" fill="#0f424e" d="M 135.5,155.5 C 136.614,156.885 137.614,158.385 138.5,160C 147.854,162.659 156.854,166.325 165.5,171C 173.04,176.721 180.373,182.554 187.5,188.5C 188.423,190.759 189.756,192.759 191.5,194.5C 191.081,195.672 190.415,196.672 189.5,197.5C 190.744,199.133 190.244,200.133 188,200.5C 184.719,199.485 183.885,197.485 185.5,194.5C 184.349,193.269 183.183,193.269 182,194.5C 181.5,194 181,193.5 180.5,193C 183.474,187.138 182.474,186.305 177.5,190.5C 175.22,187.408 172.22,185.408 168.5,184.5C 168.167,184.5 167.833,184.5 167.5,184.5C 168.317,182.692 167.65,181.192 165.5,180C 157.639,176.82 150.139,172.987 143,168.5C 138.712,169.331 135.045,167.998 132,164.5C 132.046,162.687 131.88,161.021 131.5,159.5C 131.965,157.192 133.299,155.858 135.5,155.5 Z"/></g>
<g><path style="opacity:1" fill="#1e5760" d="M 371.5,140.5 C 372.507,142.268 371.841,143.601 369.5,144.5C 366.669,149.495 363.836,154.495 361,159.5C 357.709,160.757 354.542,162.09 351.5,163.5C 338.483,168.178 326.817,175.178 316.5,184.5C 314.42,186.573 312.754,188.907 311.5,191.5C 309.736,192.326 308.402,193.659 307.5,195.5C 305.933,196.681 305.099,198.347 305,200.5C 304.667,199.833 304.333,199.167 304,198.5C 302.71,200.792 301.043,202.792 299,204.5C 297.203,201.904 295.869,202.237 295,205.5C 294.722,204.584 294.222,203.918 293.5,203.5C 300.439,187.233 310.772,173.566 324.5,162.5C 338.236,153.304 353.236,146.804 369.5,143C 370.381,142.292 371.047,141.458 371.5,140.5 Z"/></g>
<g><path style="opacity:1" fill="#1c4950" d="M 199.5,155.5 C 207.961,173.431 215.627,191.764 222.5,210.5C 220.5,209.833 218.5,209.167 216.5,208.5C 210.489,194.824 202.823,182.158 193.5,170.5C 194.858,169.374 196.192,169.374 197.5,170.5C 197.924,174.241 199.591,177.241 202.5,179.5C 203.711,178.726 203.711,177.893 202.5,177C 203.5,176.667 204.5,176.333 205.5,176C 203.699,175.683 203.366,175.016 204.5,174C 203.299,173.097 202.465,171.931 202,170.5C 200.84,165.547 200.007,160.547 199.5,155.5 Z"/></g>
<g><path style="opacity:1" fill="#0f404b" d="M 351.5,163.5 C 351.811,164.478 352.478,165.145 353.5,165.5C 355.5,164.833 357.5,164.167 359.5,163.5C 361.276,164.315 361.943,165.482 361.5,167C 357.304,169.135 352.97,170.135 348.5,170C 349.413,171.414 349.413,172.914 348.5,174.5C 345.833,175.833 343.167,177.167 340.5,178.5C 338.085,178.373 335.751,178.207 333.5,178C 330.623,181.333 327.456,184.5 324,187.5C 323.517,188.448 323.351,189.448 323.5,190.5C 321.801,190.34 320.134,190.506 318.5,191C 316.358,198.028 314.025,198.195 311.5,191.5C 312.754,188.907 314.42,186.573 316.5,184.5C 326.817,175.178 338.483,168.178 351.5,163.5 Z"/></g>
<g><path style="opacity:1" fill="#1e484d" d="M 340.5,178.5 C 326.481,187.519 315.148,199.186 306.5,213.5C 306.579,212.07 306.246,210.736 305.5,209.5C 309.124,205.918 310.791,201.585 310.5,196.5C 309.209,196.737 308.209,196.404 307.5,195.5C 308.402,193.659 309.736,192.326 311.5,191.5C 314.025,198.195 316.358,198.028 318.5,191C 320.134,190.506 321.801,190.34 323.5,190.5C 323.351,189.448 323.517,188.448 324,187.5C 327.456,184.5 330.623,181.333 333.5,178C 335.751,178.207 338.085,178.373 340.5,178.5 Z"/></g>
<g><path style="opacity:1" fill="#1b4548" d="M 163.5,197.5 C 162.504,197.414 161.671,197.748 161,198.5C 157.65,195.793 155.983,196.793 156,201.5C 155.25,202.126 154.416,202.626 153.5,203C 154.634,204.016 154.301,204.683 152.5,205C 154.311,208.631 156.644,211.798 159.5,214.5C 159.918,215.222 160.584,215.722 161.5,216C 160.978,216.561 160.645,217.228 160.5,218C 161.632,220.521 162.966,222.855 164.5,225C 163.672,225.915 162.672,226.581 161.5,227C 163.924,229.943 164.924,233.11 164.5,236.5C 156.531,219.894 148.531,203.227 140.5,186.5C 142.074,185.369 143.741,185.202 145.5,186C 151.942,189.302 157.942,193.135 163.5,197.5 Z"/></g>
<g><path style="opacity:1" fill="#9dbfbc" d="M 316.5,160.5 C 318.06,162.129 317.727,163.296 315.5,164C 316.416,164.374 317.25,164.874 318,165.5C 319.509,163.081 321.675,162.081 324.5,162.5C 310.772,173.566 300.439,187.233 293.5,203.5C 291.153,208.241 288.819,212.907 286.5,217.5C 283.41,218.17 281.743,217.003 281.5,214C 282.94,209.848 284.273,205.681 285.5,201.5C 293.144,185.848 303.478,172.182 316.5,160.5 Z"/></g>
<g><path style="opacity:1" fill="#16444d" d="M 339.5,227.5 C 339.433,225.599 339.767,223.766 340.5,222C 340.108,220.989 339.441,220.489 338.5,220.5C 340.589,218.405 340.589,216.572 338.5,215C 338.957,214.586 339.291,214.086 339.5,213.5C 338.553,211.941 337.887,210.274 337.5,208.5C 338.105,206.133 338.438,203.8 338.5,201.5C 338.121,199.787 337.121,198.787 335.5,198.5C 335.167,198.5 334.833,198.5 334.5,198.5C 341.051,192.478 348.551,187.811 357,184.5C 357.87,185.108 358.37,185.941 358.5,187C 352.271,200.62 345.938,214.12 339.5,227.5 Z"/></g>
<g><path style="opacity:1" fill="#9bc3bf" d="M 192.5,170.5 C 192.833,170.5 193.167,170.5 193.5,170.5C 202.823,182.158 210.489,194.824 216.5,208.5C 217.299,211.43 217.632,214.43 217.5,217.5C 217.167,217.5 216.833,217.5 216.5,217.5C 214.856,217.714 213.356,217.38 212,216.5C 208.874,207.582 204.708,199.249 199.5,191.5C 195.605,184.604 190.939,178.271 185.5,172.5C 186.978,172.238 188.311,172.571 189.5,173.5C 190.317,176.842 192.317,178.342 195.5,178C 193.7,175.886 192.7,173.386 192.5,170.5 Z"/></g>
<g><path style="opacity:1" fill="#144248" d="M 168.5,184.5 C 172.22,185.408 175.22,187.408 177.5,190.5C 182.474,186.305 183.474,187.138 180.5,193C 181,193.5 181.5,194 182,194.5C 183.183,193.269 184.349,193.269 185.5,194.5C 183.885,197.485 184.719,199.485 188,200.5C 190.244,200.133 190.744,199.133 189.5,197.5C 190.415,196.672 191.081,195.672 191.5,194.5C 189.756,192.759 188.423,190.759 187.5,188.5C 189.869,188.149 192.203,187.982 194.5,188C 190.446,189.941 190.78,190.775 195.5,190.5C 195.351,191.552 195.517,192.552 196,193.5C 196.71,192.027 197.876,191.36 199.5,191.5C 204.708,199.249 208.874,207.582 212,216.5C 213.356,217.38 214.856,217.714 216.5,217.5C 216.374,220.468 214.874,222.468 212,223.5C 211.323,221.311 210.156,220.978 208.5,222.5C 207.841,228.381 206.674,228.714 205,223.5C 203.865,223.727 202.698,224.06 201.5,224.5C 202.115,226.116 203.115,227.449 204.5,228.5C 204.291,229.086 203.957,229.586 203.5,230C 205.093,232.905 206.093,236.071 206.5,239.5C 206.137,240.183 205.804,240.85 205.5,241.5C 200.488,229.984 194.988,218.65 189,207.5C 182.644,199.316 175.81,191.649 168.5,184.5 Z"/></g>
<g><path style="opacity:1" fill="#134249" d="M 163.5,197.5 C 172.088,203.75 178.421,211.75 182.5,221.5C 180.4,221.477 178.567,222.144 177,223.5C 175.257,220.761 172.757,219.261 169.5,219C 173.5,217.667 173.5,216.333 169.5,215C 170.731,213.817 170.731,212.651 169.5,211.5C 166.004,212.078 162.671,213.078 159.5,214.5C 156.644,211.798 154.311,208.631 152.5,205C 154.301,204.683 154.634,204.016 153.5,203C 154.416,202.626 155.25,202.126 156,201.5C 155.983,196.793 157.65,195.793 161,198.5C 161.671,197.748 162.504,197.414 163.5,197.5 Z"/></g>
<g><path style="opacity:1" fill="#123e44" d="M 182.5,221.5 C 186.403,229.648 190.07,237.981 193.5,246.5C 193.657,247.873 193.49,249.207 193,250.5C 191.815,248.623 190.815,246.623 190,244.5C 189,244.167 188,243.833 187,243.5C 186.73,240.638 185.896,237.972 184.5,235.5C 182.997,236.59 182.664,237.757 183.5,239C 181.553,239.991 179.553,240.325 177.5,240C 177.365,235.894 176.365,231.727 174.5,227.5C 172.997,228.59 172.664,229.757 173.5,231C 172.833,231.333 172.167,231.667 171.5,232C 172.833,233.333 174.167,234.667 175.5,236C 173.759,237.62 171.925,239.12 170,240.5C 169.517,241.448 169.351,242.448 169.5,243.5C 173.554,241.594 174.388,242.594 172,246.5C 171.667,246.167 171.333,245.833 171,245.5C 170.51,246.793 170.343,248.127 170.5,249.5C 168.13,245.414 166.13,241.081 164.5,236.5C 164.924,233.11 163.924,229.943 161.5,227C 162.672,226.581 163.672,225.915 164.5,225C 162.966,222.855 161.632,220.521 160.5,218C 160.645,217.228 160.978,216.561 161.5,216C 160.584,215.722 159.918,215.222 159.5,214.5C 162.671,213.078 166.004,212.078 169.5,211.5C 170.731,212.651 170.731,213.817 169.5,215C 173.5,216.333 173.5,217.667 169.5,219C 172.757,219.261 175.257,220.761 177,223.5C 178.567,222.144 180.4,221.477 182.5,221.5 Z"/></g>
<g><path style="opacity:1" fill="#123b42" d="M 216.5,217.5 C 216.833,217.5 217.167,217.5 217.5,217.5C 218.738,217.81 218.738,218.31 217.5,219C 221.095,218.387 221.429,219.554 218.5,222.5C 217.604,221.494 216.938,221.494 216.5,222.5C 218.003,226.471 219.67,230.305 221.5,234C 218.636,238.4 219.803,241.567 225,243.5C 226,242.167 227,240.833 228,239.5C 228.708,240.381 229.542,241.047 230.5,241.5C 228.78,242.683 228.447,244.517 229.5,247C 229.392,248.681 228.725,249.848 227.5,250.5C 226.31,248.645 224.977,246.812 223.5,245C 219.513,244.661 218.013,246.494 219,250.5C 220.076,253.237 221.243,255.904 222.5,258.5C 221.5,258.5 220.5,258.5 219.5,258.5C 217.811,249.49 216.144,248.99 214.5,257C 215.486,260.654 217.319,263.82 220,266.5C 220.333,265.833 220.667,265.167 221,264.5C 221.5,266 222,267.5 222.5,269C 221.541,271.12 221.374,273.287 222,275.5C 223,276.833 224,276.833 225,275.5C 225.743,277.441 225.576,279.274 224.5,281C 227.521,284.895 228.854,289.395 228.5,294.5C 220.597,277.018 212.93,259.352 205.5,241.5C 205.804,240.85 206.137,240.183 206.5,239.5C 206.093,236.071 205.093,232.905 203.5,230C 203.957,229.586 204.291,229.086 204.5,228.5C 203.115,227.449 202.115,226.116 201.5,224.5C 202.698,224.06 203.865,223.727 205,223.5C 206.674,228.714 207.841,228.381 208.5,222.5C 210.156,220.978 211.323,221.311 212,223.5C 214.874,222.468 216.374,220.468 216.5,217.5 Z"/></g>
<g><path style="opacity:1" fill="#133f47" d="M 216.5,208.5 C 218.5,209.167 220.5,209.833 222.5,210.5C 227.028,220.752 231.362,231.085 235.5,241.5C 234.25,241.577 233.417,242.244 233,243.5C 232.583,242.244 231.75,241.577 230.5,241.5C 229.542,241.047 228.708,240.381 228,239.5C 227,240.833 226,242.167 225,243.5C 219.803,241.567 218.636,238.4 221.5,234C 219.67,230.305 218.003,226.471 216.5,222.5C 216.938,221.494 217.604,221.494 218.5,222.5C 221.429,219.554 221.095,218.387 217.5,219C 218.738,218.31 218.738,217.81 217.5,217.5C 217.632,214.43 217.299,211.43 216.5,208.5 Z"/></g>
<g><path style="opacity:1" fill="#174248" d="M 283.5,193.5 C 284.586,193.62 285.253,194.287 285.5,195.5C 284.418,197.673 284.418,199.673 285.5,201.5C 284.273,205.681 282.94,209.848 281.5,214C 281.743,217.003 283.41,218.17 286.5,217.5C 286.5,218.167 286.5,218.833 286.5,219.5C 283.756,221.058 281.59,220.391 280,217.5C 278.364,222.012 277.364,226.678 277,231.5C 275.736,231.36 274.569,231.36 273.5,231.5C 277.11,233.712 276.443,234.712 271.5,234.5C 271.719,233.325 271.386,232.325 270.5,231.5C 270.167,231.833 269.833,232.167 269.5,232.5C 270.833,234.5 270.833,236.5 269.5,238.5C 270.376,239.251 271.376,239.751 272.5,240C 270.796,241.636 269.296,243.469 268,245.5C 267.439,244.978 266.772,244.645 266,244.5C 264.877,246.1 263.377,247.1 261.5,247.5C 268.642,229.404 275.975,211.404 283.5,193.5 Z"/></g>
<g><path style="opacity:1" fill="#0e3e47" d="M 335.5,198.5 C 337.121,198.787 338.121,199.787 338.5,201.5C 338.438,203.8 338.105,206.133 337.5,208.5C 337.887,210.274 338.553,211.941 339.5,213.5C 339.291,214.086 338.957,214.586 338.5,215C 340.589,216.572 340.589,218.405 338.5,220.5C 339.441,220.489 340.108,220.989 340.5,222C 339.767,223.766 339.433,225.599 339.5,227.5C 334.498,238.171 329.498,248.838 324.5,259.5C 323.883,259.389 323.383,259.056 323,258.5C 321.732,260.481 320.566,262.481 319.5,264.5C 318.761,264.631 318.094,264.464 317.5,264C 318.26,262.559 318.926,261.059 319.5,259.5C 318.37,258.378 317.703,257.044 317.5,255.5C 316.392,253.305 316.559,251.305 318,249.5C 318.893,250.711 319.726,250.711 320.5,249.5C 321.309,247.929 321.643,246.262 321.5,244.5C 319.876,244.36 318.71,245.027 318,246.5C 317.316,245.216 317.483,244.049 318.5,243C 316.591,242.552 315.424,243.385 315,245.5C 314.167,244.667 313.333,243.833 312.5,243C 312.989,237.361 314.989,232.361 318.5,228C 319.793,227.51 321.127,227.343 322.5,227.5C 322.08,225.326 322.08,223.326 322.5,221.5C 319.75,220.994 319.916,219.66 323,217.5C 323.333,215.5 323.667,213.5 324,211.5C 325.94,210.717 327.44,208.884 328.5,206C 329.766,205.691 330.933,205.191 332,204.5C 332.564,202.113 333.73,200.113 335.5,198.5 Z"/></g>
<g><path style="opacity:1" fill="#113d45" d="M 286.5,219.5 C 287.708,218.766 289.041,218.433 290.5,218.5C 290.657,219.873 290.49,221.207 290,222.5C 285.586,225.248 285.42,228.248 289.5,231.5C 288.282,232.803 288.615,233.803 290.5,234.5C 290.032,236.134 289.032,237.3 287.5,238C 288.5,238.333 289.5,238.667 290.5,239C 290.623,242.951 289.289,246.617 286.5,250C 287.305,251.113 287.972,252.279 288.5,253.5C 282.564,270.695 275.564,287.362 267.5,303.5C 267.167,302.833 266.833,302.167 266.5,301.5C 267.662,298.529 268.995,295.696 270.5,293C 270.867,289.224 269.2,287.057 265.5,286.5C 270.776,274.281 275.776,261.947 280.5,249.5C 279.658,245.077 277.492,244.41 274,247.5C 271.101,254.728 267.935,261.728 264.5,268.5C 263.647,265.007 264.314,261.673 266.5,258.5C 265.692,256.075 264.692,253.742 263.5,251.5C 261.467,253.452 261.134,255.618 262.5,258C 259.159,260.472 259.159,262.472 262.5,264C 261.965,266.109 260.965,266.609 259.5,265.5C 258.186,266.313 257.019,267.313 256,268.5C 255.329,267.748 254.496,267.414 253.5,267.5C 256.367,260.897 259.033,254.23 261.5,247.5C 263.377,247.1 264.877,246.1 266,244.5C 266.772,244.645 267.439,244.978 268,245.5C 269.296,243.469 270.796,241.636 272.5,240C 271.376,239.751 270.376,239.251 269.5,238.5C 270.833,236.5 270.833,234.5 269.5,232.5C 269.833,232.167 270.167,231.833 270.5,231.5C 271.386,232.325 271.719,233.325 271.5,234.5C 276.443,234.712 277.11,233.712 273.5,231.5C 274.569,231.36 275.736,231.36 277,231.5C 277.364,226.678 278.364,222.012 280,217.5C 281.59,220.391 283.756,221.058 286.5,219.5 Z"/></g>
<g><path style="opacity:1" fill="#13424b" d="M 307.5,195.5 C 308.209,196.404 309.209,196.737 310.5,196.5C 310.791,201.585 309.124,205.918 305.5,209.5C 306.246,210.736 306.579,212.07 306.5,213.5C 300.684,226.96 294.684,240.293 288.5,253.5C 287.972,252.279 287.305,251.113 286.5,250C 289.289,246.617 290.623,242.951 290.5,239C 289.5,238.667 288.5,238.333 287.5,238C 289.032,237.3 290.032,236.134 290.5,234.5C 288.615,233.803 288.282,232.803 289.5,231.5C 285.42,228.248 285.586,225.248 290,222.5C 290.49,221.207 290.657,219.873 290.5,218.5C 289.041,218.433 287.708,218.766 286.5,219.5C 286.5,218.833 286.5,218.167 286.5,217.5C 288.819,212.907 291.153,208.241 293.5,203.5C 294.222,203.918 294.722,204.584 295,205.5C 295.869,202.237 297.203,201.904 299,204.5C 301.043,202.792 302.71,200.792 304,198.5C 304.333,199.167 304.667,199.833 305,200.5C 305.099,198.347 305.933,196.681 307.5,195.5 Z"/></g>
<g><path style="opacity:1" fill="#113a40" d="M 193.5,246.5 C 199.815,261.09 206.148,275.757 212.5,290.5C 210.983,290.511 209.816,291.177 209,292.5C 208.801,290.598 207.967,289.098 206.5,288C 207.471,286.796 208.471,286.296 209.5,286.5C 207.384,282.91 205.551,279.243 204,275.5C 202.276,272.27 200.276,271.936 198,274.5C 196.641,272.308 194.808,270.641 192.5,269.5C 191.902,268.205 191.402,266.872 191,265.5C 190.107,266.711 189.274,266.711 188.5,265.5C 189.46,264.188 189.294,262.854 188,261.5C 187.781,262.938 187.281,264.271 186.5,265.5C 185.198,263.554 184.531,261.721 184.5,260C 182.911,258.457 181.577,258.457 180.5,260C 179.245,264.35 180.245,268.184 183.5,271.5C 182.757,272.182 182.091,272.849 181.5,273.5C 177.85,265.578 174.184,257.578 170.5,249.5C 170.343,248.127 170.51,246.793 171,245.5C 171.333,245.833 171.667,246.167 172,246.5C 174.388,242.594 173.554,241.594 169.5,243.5C 169.351,242.448 169.517,241.448 170,240.5C 171.925,239.12 173.759,237.62 175.5,236C 174.167,234.667 172.833,233.333 171.5,232C 172.167,231.667 172.833,231.333 173.5,231C 172.664,229.757 172.997,228.59 174.5,227.5C 176.365,231.727 177.365,235.894 177.5,240C 179.553,240.325 181.553,239.991 183.5,239C 182.664,237.757 182.997,236.59 184.5,235.5C 185.896,237.972 186.73,240.638 187,243.5C 188,243.833 189,244.167 190,244.5C 190.815,246.623 191.815,248.623 193,250.5C 193.49,249.207 193.657,247.873 193.5,246.5 Z"/></g>
<g><path style="opacity:1" fill="#153d44" d="M 230.5,241.5 C 231.75,241.577 232.583,242.244 233,243.5C 233.417,242.244 234.25,241.577 235.5,241.5C 239.228,251.178 243.061,260.844 247,270.5C 249.906,272.067 252.072,271.4 253.5,268.5C 253.785,270.288 253.452,271.955 252.5,273.5C 251.549,272.674 250.549,272.508 249.5,273C 250.258,274.364 249.758,275.531 248,276.5C 246.916,274.218 245.416,273.884 243.5,275.5C 243.577,274.25 244.244,273.417 245.5,273C 244.773,271.601 244.273,270.101 244,268.5C 240.378,266.715 238.378,263.715 238,259.5C 237.333,260.833 236.667,262.167 236,263.5C 235.346,262.304 234.846,262.304 234.5,263.5C 237.762,264.054 238.762,265.72 237.5,268.5C 238.5,269.333 239.5,270.167 240.5,271C 239.643,271.689 238.977,272.522 238.5,273.5C 239.791,274.527 239.791,275.527 238.5,276.5C 234.849,267.898 231.183,259.231 227.5,250.5C 228.725,249.848 229.392,248.681 229.5,247C 228.447,244.517 228.78,242.683 230.5,241.5 Z"/></g>
<g><path style="opacity:1" fill="#143d43" d="M 334.5,198.5 C 334.833,198.5 335.167,198.5 335.5,198.5C 333.73,200.113 332.564,202.113 332,204.5C 330.933,205.191 329.766,205.691 328.5,206C 327.44,208.884 325.94,210.717 324,211.5C 323.667,213.5 323.333,215.5 323,217.5C 319.916,219.66 319.75,220.994 322.5,221.5C 322.08,223.326 322.08,225.326 322.5,227.5C 321.127,227.343 319.793,227.51 318.5,228C 314.989,232.361 312.989,237.361 312.5,243C 313.333,243.833 314.167,244.667 315,245.5C 315.424,243.385 316.591,242.552 318.5,243C 317.483,244.049 317.316,245.216 318,246.5C 318.71,245.027 319.876,244.36 321.5,244.5C 321.643,246.262 321.309,247.929 320.5,249.5C 319.726,250.711 318.893,250.711 318,249.5C 316.559,251.305 316.392,253.305 317.5,255.5C 315.459,255.854 313.626,255.854 312,255.5C 311.667,252.833 311.333,250.167 311,247.5C 309.795,248.071 308.628,248.738 307.5,249.5C 305.828,252.837 304.161,256.17 302.5,259.5C 301.735,260.612 300.735,261.279 299.5,261.5C 306.046,243.075 314.213,225.408 324,208.5C 327.369,204.963 330.869,201.629 334.5,198.5 Z"/></g>
<g><path style="opacity:1" fill="#0c363e" d="M 317.5,255.5 C 317.703,257.044 318.37,258.378 319.5,259.5C 318.926,261.059 318.26,262.559 317.5,264C 318.094,264.464 318.761,264.631 319.5,264.5C 319.5,266.167 319.5,267.833 319.5,269.5C 315.515,269.629 314.182,271.463 315.5,275C 312.786,281.28 309.953,286.78 307,291.5C 306.503,293.81 306.337,296.143 306.5,298.5C 303.259,307.911 299.259,316.911 294.5,325.5C 294.768,323.901 294.434,322.568 293.5,321.5C 294.992,320.393 295.992,318.893 296.5,317C 297.059,312.657 298.226,308.49 300,304.5C 300.333,305.167 300.667,305.833 301,306.5C 302.95,303.052 304.45,299.385 305.5,295.5C 303.728,291.837 300.895,289.17 297,287.5C 297.43,285.873 297.596,284.373 297.5,283C 296.833,282.667 296.167,282.333 295.5,282C 297.007,281.163 297.507,279.996 297,278.5C 295.989,279.337 294.822,279.67 293.5,279.5C 293.5,280.5 293.5,281.5 293.5,282.5C 292.5,282.5 291.5,282.5 290.5,282.5C 293.227,275.38 296.227,268.38 299.5,261.5C 300.735,261.279 301.735,260.612 302.5,259.5C 304.161,256.17 305.828,252.837 307.5,249.5C 308.628,248.738 309.795,248.071 311,247.5C 311.333,250.167 311.667,252.833 312,255.5C 313.626,255.854 315.459,255.854 317.5,255.5 Z"/></g>
<g><path style="opacity:1" fill="#92b8b4" d="M 265.5,286.5 C 264.659,290.197 262.825,293.197 260,295.5C 255.998,292.799 255.498,289.466 258.5,285.5C 260.783,279.934 262.783,274.267 264.5,268.5C 267.935,261.728 271.101,254.728 274,247.5C 277.492,244.41 279.658,245.077 280.5,249.5C 275.776,261.947 270.776,274.281 265.5,286.5 Z"/></g>
<g><path style="opacity:1" fill="#8fb8b5" d="M 227.5,250.5 C 231.183,259.231 234.849,267.898 238.5,276.5C 243.049,288.593 248.382,300.26 254.5,311.5C 254.5,312.5 254.5,313.5 254.5,314.5C 253.778,314.918 253.278,315.584 253,316.5C 252.683,314.699 252.016,314.366 251,315.5C 250.215,313.714 249.049,312.214 247.5,311C 247.833,310.667 248.167,310.333 248.5,310C 247.211,308.198 245.544,307.031 243.5,306.5C 242.404,303.968 241.071,301.635 239.5,299.5C 239.657,298.127 239.49,296.793 239,295.5C 233.202,283.263 227.702,270.929 222.5,258.5C 221.243,255.904 220.076,253.237 219,250.5C 218.013,246.494 219.513,244.661 223.5,245C 224.977,246.812 226.31,248.645 227.5,250.5 Z"/></g>
<g><path style="opacity:1" fill="#0e353c" d="M 212.5,290.5 C 215.285,295.188 217.285,300.188 218.5,305.5C 217.883,305.611 217.383,305.944 217,306.5C 216.71,304.956 216.044,303.623 215,302.5C 213.506,303.747 212.006,303.747 210.5,302.5C 212.04,299.709 211.706,297.209 209.5,295C 206.827,295.063 206.827,295.729 209.5,297C 208.552,297.483 207.552,297.649 206.5,297.5C 206.649,298.552 206.483,299.552 206,300.5C 205.598,299.128 205.098,297.795 204.5,296.5C 203.833,295.167 203.167,295.167 202.5,296.5C 203.184,299.419 204.518,301.919 206.5,304C 203.07,304.638 201.737,303.138 202.5,299.5C 201.5,299.5 200.5,299.5 199.5,299.5C 199.73,296.385 199.73,293.551 199.5,291C 198.101,290.405 196.768,290.572 195.5,291.5C 193.256,285.091 192.09,285.091 192,291.5C 193.205,292.071 194.372,292.738 195.5,293.5C 193.896,295.179 193.229,297.179 193.5,299.5C 188.973,291.111 184.973,282.444 181.5,273.5C 182.091,272.849 182.757,272.182 183.5,271.5C 180.245,268.184 179.245,264.35 180.5,260C 181.577,258.457 182.911,258.457 184.5,260C 184.531,261.721 185.198,263.554 186.5,265.5C 187.281,264.271 187.781,262.938 188,261.5C 189.294,262.854 189.46,264.188 188.5,265.5C 189.274,266.711 190.107,266.711 191,265.5C 191.402,266.872 191.902,268.205 192.5,269.5C 194.808,270.641 196.641,272.308 198,274.5C 200.276,271.936 202.276,272.27 204,275.5C 205.551,279.243 207.384,282.91 209.5,286.5C 208.471,286.296 207.471,286.796 206.5,288C 207.967,289.098 208.801,290.598 209,292.5C 209.816,291.177 210.983,290.511 212.5,290.5 Z"/></g>
<g><path style="opacity:1" fill="#0a333c" d="M 264.5,268.5 C 262.783,274.267 260.783,279.934 258.5,285.5C 257.078,285.709 255.745,286.209 254.5,287C 255.406,288.699 255.739,290.533 255.5,292.5C 254.07,292.421 252.736,292.754 251.5,293.5C 246.609,291.202 244.276,287.202 244.5,281.5C 242.417,279.86 242.084,277.86 243.5,275.5C 245.416,273.884 246.916,274.218 248,276.5C 249.758,275.531 250.258,274.364 249.5,273C 250.549,272.508 251.549,272.674 252.5,273.5C 253.452,271.955 253.785,270.288 253.5,268.5C 253.5,268.167 253.5,267.833 253.5,267.5C 254.496,267.414 255.329,267.748 256,268.5C 257.019,267.313 258.186,266.313 259.5,265.5C 260.965,266.609 261.965,266.109 262.5,264C 259.159,262.472 259.159,260.472 262.5,258C 261.134,255.618 261.467,253.452 263.5,251.5C 264.692,253.742 265.692,256.075 266.5,258.5C 264.314,261.673 263.647,265.007 264.5,268.5 Z"/></g>
<g><path style="opacity:1" fill="#234648" d="M 324.5,259.5 C 319.258,272.911 313.258,285.911 306.5,298.5C 306.337,296.143 306.503,293.81 307,291.5C 309.953,286.78 312.786,281.28 315.5,275C 314.182,271.463 315.515,269.629 319.5,269.5C 319.5,267.833 319.5,266.167 319.5,264.5C 320.566,262.481 321.732,260.481 323,258.5C 323.383,259.056 323.883,259.389 324.5,259.5 Z"/></g>
<g><path style="opacity:1" fill="#08313c" d="M 293.5,321.5 C 293.631,322.376 293.298,323.043 292.5,323.5C 291.447,322.562 290.78,321.395 290.5,320C 292.743,314.694 293.576,309.194 293,303.5C 291.956,302.377 291.29,301.044 291,299.5C 289.933,298.809 288.766,298.309 287.5,298C 289.686,296.488 291.353,294.488 292.5,292C 291.39,288.951 290.723,285.784 290.5,282.5C 291.5,282.5 292.5,282.5 293.5,282.5C 293.5,281.5 293.5,280.5 293.5,279.5C 294.822,279.67 295.989,279.337 297,278.5C 297.507,279.996 297.007,281.163 295.5,282C 296.167,282.333 296.833,282.667 297.5,283C 297.596,284.373 297.43,285.873 297,287.5C 300.895,289.17 303.728,291.837 305.5,295.5C 304.45,299.385 302.95,303.052 301,306.5C 300.667,305.833 300.333,305.167 300,304.5C 298.226,308.49 297.059,312.657 296.5,317C 295.992,318.893 294.992,320.393 293.5,321.5 Z"/></g>
<g><path style="opacity:1" fill="#0c343c" d="M 222.5,258.5 C 227.702,270.929 233.202,283.263 239,295.5C 239.49,296.793 239.657,298.127 239.5,299.5C 238.572,302.13 237.572,304.796 236.5,307.5C 235.269,306.349 235.269,305.183 236.5,304C 235.552,303.517 234.552,303.351 233.5,303.5C 233.657,302.127 233.49,300.793 233,299.5C 232.124,297.365 230.624,296.031 228.5,295.5C 228.5,295.167 228.5,294.833 228.5,294.5C 228.854,289.395 227.521,284.895 224.5,281C 225.576,279.274 225.743,277.441 225,275.5C 224,276.833 223,276.833 222,275.5C 221.374,273.287 221.541,271.12 222.5,269C 222,267.5 221.5,266 221,264.5C 220.667,265.167 220.333,265.833 220,266.5C 217.319,263.82 215.486,260.654 214.5,257C 216.144,248.99 217.811,249.49 219.5,258.5C 220.5,258.5 221.5,258.5 222.5,258.5 Z"/></g>
<g><path style="opacity:1" fill="#09333a" d="M 243.5,275.5 C 242.084,277.86 242.417,279.86 244.5,281.5C 244.276,287.202 246.609,291.202 251.5,293.5C 252.736,292.754 254.07,292.421 255.5,292.5C 255.739,290.533 255.406,288.699 254.5,287C 255.745,286.209 257.078,285.709 258.5,285.5C 255.498,289.466 255.998,292.799 260,295.5C 262.825,293.197 264.659,290.197 265.5,286.5C 269.2,287.057 270.867,289.224 270.5,293C 268.995,295.696 267.662,298.529 266.5,301.5C 264.292,302.023 262.792,303.356 262,305.5C 261.667,305.167 261.333,304.833 261,304.5C 260.63,306.664 259.796,308.664 258.5,310.5C 257.264,311.246 255.93,311.579 254.5,311.5C 248.382,300.26 243.049,288.593 238.5,276.5C 239.791,275.527 239.791,274.527 238.5,273.5C 238.977,272.522 239.643,271.689 240.5,271C 239.5,270.167 238.5,269.333 237.5,268.5C 238.762,265.72 237.762,264.054 234.5,263.5C 234.846,262.304 235.346,262.304 236,263.5C 236.667,262.167 237.333,260.833 238,259.5C 238.378,263.715 240.378,266.715 244,268.5C 244.273,270.101 244.773,271.601 245.5,273C 244.244,273.417 243.577,274.25 243.5,275.5 Z"/></g>
<g><path style="opacity:1" fill="#10333a" d="M 290.5,282.5 C 290.723,285.784 291.39,288.951 292.5,292C 291.353,294.488 289.686,296.488 287.5,298C 288.766,298.309 289.933,298.809 291,299.5C 291.29,301.044 291.956,302.377 293,303.5C 293.576,309.194 292.743,314.694 290.5,320C 290.78,321.395 291.447,322.562 292.5,323.5C 293.298,323.043 293.631,322.376 293.5,321.5C 294.434,322.568 294.768,323.901 294.5,325.5C 292.589,331.587 289.923,337.253 286.5,342.5C 287.59,336.26 289.257,330.926 291.5,326.5C 290.448,326.351 289.448,326.517 288.5,327C 289.654,327.914 289.487,328.747 288,329.5C 287.257,327.559 287.424,325.726 288.5,324C 287.833,323.667 287.167,323.333 286.5,323C 289.528,319.675 288.861,317.342 284.5,316C 286.032,315.3 287.032,314.134 287.5,312.5C 286.273,311.41 285.44,310.076 285,308.5C 281.607,311.622 278.44,314.955 275.5,318.5C 279.988,306.203 284.988,294.203 290.5,282.5 Z"/></g>
<g><path style="opacity:1" fill="#0b2f36" d="M 218.5,305.5 C 221.012,309.866 223.012,314.533 224.5,319.5C 221.662,321.306 221.995,322.306 225.5,322.5C 225.162,325.157 225.829,327.49 227.5,329.5C 226.529,330.962 226.862,332.295 228.5,333.5C 227.315,334.853 225.981,336.02 224.5,337C 224.957,337.414 225.291,337.914 225.5,338.5C 224.311,339.429 222.978,339.762 221.5,339.5C 221.799,337.396 221.466,335.396 220.5,333.5C 217.193,336.519 213.526,337.186 209.5,335.5C 203.602,323.827 198.269,311.827 193.5,299.5C 193.229,297.179 193.896,295.179 195.5,293.5C 194.372,292.738 193.205,292.071 192,291.5C 192.09,285.091 193.256,285.091 195.5,291.5C 196.768,290.572 198.101,290.405 199.5,291C 199.73,293.551 199.73,296.385 199.5,299.5C 200.5,299.5 201.5,299.5 202.5,299.5C 201.737,303.138 203.07,304.638 206.5,304C 204.518,301.919 203.184,299.419 202.5,296.5C 203.167,295.167 203.833,295.167 204.5,296.5C 205.098,297.795 205.598,299.128 206,300.5C 206.483,299.552 206.649,298.552 206.5,297.5C 207.552,297.649 208.552,297.483 209.5,297C 206.827,295.729 206.827,295.063 209.5,295C 211.706,297.209 212.04,299.709 210.5,302.5C 212.006,303.747 213.506,303.747 215,302.5C 216.044,303.623 216.71,304.956 217,306.5C 217.383,305.944 217.883,305.611 218.5,305.5 Z"/></g>
<g><path style="opacity:1" fill="#082f36" d="M 266.5,301.5 C 266.833,302.167 267.167,302.833 267.5,303.5C 265.251,310.585 267.084,316.252 273,320.5C 273.708,319.619 274.542,318.953 275.5,318.5C 278.44,314.955 281.607,311.622 285,308.5C 285.44,310.076 286.273,311.41 287.5,312.5C 287.032,314.134 286.032,315.3 284.5,316C 288.861,317.342 289.528,319.675 286.5,323C 287.167,323.333 287.833,323.667 288.5,324C 287.424,325.726 287.257,327.559 288,329.5C 289.487,328.747 289.654,327.914 288.5,327C 289.448,326.517 290.448,326.351 291.5,326.5C 289.257,330.926 287.59,336.26 286.5,342.5C 283.736,349.684 280.736,356.684 277.5,363.5C 277.322,362.305 276.989,361.138 276.5,360C 279.03,355.994 280.364,351.827 280.5,347.5C 279.442,345.888 278.108,345.055 276.5,345C 274.984,346.897 274.317,349.064 274.5,351.5C 273.5,351.5 272.5,351.5 271.5,351.5C 271.5,348.167 271.5,344.833 271.5,341.5C 272.693,341.03 273.36,340.03 273.5,338.5C 272.837,336.51 272.837,334.677 273.5,333C 272.728,331.779 271.728,330.779 270.5,330C 271.337,328.989 271.67,327.822 271.5,326.5C 270.178,326.67 269.011,326.337 268,325.5C 267.691,326.766 267.191,327.933 266.5,329C 266.714,331.548 266.714,334.048 266.5,336.5C 262.5,329.167 258.5,321.833 254.5,314.5C 254.5,313.5 254.5,312.5 254.5,311.5C 255.93,311.579 257.264,311.246 258.5,310.5C 259.796,308.664 260.63,306.664 261,304.5C 261.333,304.833 261.667,305.167 262,305.5C 262.792,303.356 264.292,302.023 266.5,301.5 Z"/></g>
<g><path style="opacity:1" fill="#103134" d="M 228.5,295.5 C 230.624,296.031 232.124,297.365 233,299.5C 233.49,300.793 233.657,302.127 233.5,303.5C 234.552,303.351 235.552,303.517 236.5,304C 235.269,305.183 235.269,306.349 236.5,307.5C 237.572,304.796 238.572,302.13 239.5,299.5C 241.071,301.635 242.404,303.968 243.5,306.5C 246.973,314.779 250.973,322.779 255.5,330.5C 253.692,331.317 252.192,330.65 251,328.5C 249.644,329.38 248.144,329.714 246.5,329.5C 246.371,331.216 246.038,332.883 245.5,334.5C 239.597,321.685 233.93,308.685 228.5,295.5 Z"/></g>
<g><path style="opacity:1" fill="#0f2d32" d="M 224.5,319.5 C 230.205,330.925 235.538,342.592 240.5,354.5C 236.277,354.462 233.444,352.462 232,348.5C 231.506,350.134 231.34,351.801 231.5,353.5C 230.167,353.5 228.833,353.5 227.5,353.5C 227.786,356.834 227.786,360 227.5,363C 227.759,364.261 228.426,365.261 229.5,366C 228.552,366.483 227.552,366.649 226.5,366.5C 226.575,369.206 226.908,371.873 227.5,374.5C 220.743,361.917 214.743,348.917 209.5,335.5C 213.526,337.186 217.193,336.519 220.5,333.5C 221.466,335.396 221.799,337.396 221.5,339.5C 222.978,339.762 224.311,339.429 225.5,338.5C 225.291,337.914 224.957,337.414 224.5,337C 225.981,336.02 227.315,334.853 228.5,333.5C 226.862,332.295 226.529,330.962 227.5,329.5C 225.829,327.49 225.162,325.157 225.5,322.5C 221.995,322.306 221.662,321.306 224.5,319.5 Z"/></g>
<g><path style="opacity:1" fill="#6a9a9c" d="M 243.5,306.5 C 245.544,307.031 247.211,308.198 248.5,310C 248.167,310.333 247.833,310.667 247.5,311C 249.049,312.214 250.215,313.714 251,315.5C 252.016,314.366 252.683,314.699 253,316.5C 253.278,315.584 253.778,314.918 254.5,314.5C 258.5,321.833 262.5,329.167 266.5,336.5C 268.542,340.915 267.209,343.082 262.5,343C 260.259,338.775 257.926,334.608 255.5,330.5C 250.973,322.779 246.973,314.779 243.5,306.5 Z"/></g>
<g><path style="opacity:1" fill="#072a30" d="M 271.5,341.5 C 270.883,341.611 270.383,341.944 270,342.5C 269.774,345.095 269.274,347.595 268.5,350C 269.706,351.018 269.373,351.518 267.5,351.5C 264.957,349.797 262.29,348.463 259.5,347.5C 260.041,350.652 259.041,353.152 256.5,355C 259.142,357.413 260.142,360.246 259.5,363.5C 254.052,354.269 249.385,344.602 245.5,334.5C 246.038,332.883 246.371,331.216 246.5,329.5C 248.144,329.714 249.644,329.38 251,328.5C 252.192,330.65 253.692,331.317 255.5,330.5C 257.926,334.608 260.259,338.775 262.5,343C 267.209,343.082 268.542,340.915 266.5,336.5C 266.714,334.048 266.714,331.548 266.5,329C 267.191,327.933 267.691,326.766 268,325.5C 269.011,326.337 270.178,326.67 271.5,326.5C 271.67,327.822 271.337,328.989 270.5,330C 271.728,330.779 272.728,331.779 273.5,333C 272.837,334.677 272.837,336.51 273.5,338.5C 273.36,340.03 272.693,341.03 271.5,341.5 Z"/></g>
<g><path style="opacity:1" fill="#0b2b31" d="M 240.5,354.5 C 244.812,363.791 249.645,372.791 255,381.5C 255.667,382.5 255.667,383.5 255,384.5C 248.248,385.645 241.414,385.811 234.5,385C 230.445,382.699 228.111,379.199 227.5,374.5C 226.908,371.873 226.575,369.206 226.5,366.5C 227.552,366.649 228.552,366.483 229.5,366C 228.426,365.261 227.759,364.261 227.5,363C 227.786,360 227.786,356.834 227.5,353.5C 228.833,353.5 230.167,353.5 231.5,353.5C 231.34,351.801 231.506,350.134 232,348.5C 233.444,352.462 236.277,354.462 240.5,354.5 Z"/></g>
<g><path style="opacity:1" fill="#092a32" d="M 271.5,341.5 C 271.5,344.833 271.5,348.167 271.5,351.5C 272.5,351.5 273.5,351.5 274.5,351.5C 274.317,349.064 274.984,346.897 276.5,345C 278.108,345.055 279.442,345.888 280.5,347.5C 280.364,351.827 279.03,355.994 276.5,360C 276.989,361.138 277.322,362.305 277.5,363.5C 275.289,368.966 272.789,374.3 270,379.5C 265.733,374.623 262.233,369.29 259.5,363.5C 260.142,360.246 259.142,357.413 256.5,355C 259.041,353.152 260.041,350.652 259.5,347.5C 262.29,348.463 264.957,349.797 267.5,351.5C 269.373,351.518 269.706,351.018 268.5,350C 269.274,347.595 269.774,345.095 270,342.5C 270.383,341.944 270.883,341.611 271.5,341.5 Z"/></g>
</svg>
